<svg width="565" height="300" viewBox="0 0 565 300" fill="none" xmlns="http://www.w3.org/2000/svg">
<path d="M203.195 196.37C190.247 207.594 176.555 213.906 164.265 213.906C146.76 213.906 137.264 203.385 137.264 186.552C137.264 168.329 147.431 154.99 188.144 154.99H203.195V196.37V196.37ZM238.937 236.689V111.871C238.937 79.965 220.741 58.914 176.893 58.914C151.307 58.914 128.874 65.238 110.638 73.293L115.886 95.401C130.249 90.126 148.823 85.228 167.059 85.228C192.325 85.228 203.195 95.401 203.195 116.441V132.224H190.57C129.198 132.224 101.51 156.023 101.51 191.829C101.51 222.672 119.759 240.21 154.113 240.21C176.19 240.21 192.69 231.094 208.093 217.75L210.898 236.689H238.937V236.689ZM358.215 236.689H313.643L259.993 62.102H298.92L332.221 169.384L339.627 201.615C356.439 154.995 368.357 107.658 374.319 62.102H412.179C402.056 119.588 383.788 182.695 358.215 236.689ZM529.245 196.37C516.254 207.594 502.559 213.906 490.304 213.906C472.792 213.906 463.297 203.385 463.297 186.552C463.297 168.329 473.485 154.99 514.159 154.99H529.243V196.368L529.245 196.37ZM565 236.689V111.871C565 79.965 546.751 58.914 502.942 58.914C477.323 58.914 454.896 65.238 436.659 73.293L441.917 95.401C456.286 90.126 474.886 85.228 493.12 85.228C518.353 85.228 529.244 95.401 529.244 116.441V132.224H516.62C455.233 132.224 427.554 156.023 427.554 191.829C427.554 222.672 445.781 240.21 480.131 240.21C502.225 240.21 518.693 231.094 534.138 217.75L536.963 236.689H565V236.689ZM62.313 266.359C52.129 281.24 35.661 293.027 17.647 299.672L0 278.886C13.722 271.836 25.476 260.479 30.945 249.903C35.661 240.475 37.625 228.358 37.625 199.348V0H75.61V196.6C75.61 235.398 72.512 251.083 62.313 266.359Z" fill="white"/>
</svg>
