<svg width="242" height="193" viewBox="0 0 242 193" fill="none" xmlns="http://www.w3.org/2000/svg">
<path d="M45.5793 31.9375C122.402 -49.0116 167.336 59.5098 35.4362 117.937C25.2537 265.876 77.7708 141.219 90.987 117.937M45.5793 31.9375C43.0115 34.6432 40.408 37.5606 37.7744 40.6986C41.1575 35.6538 43.7193 32.8601 45.5793 31.9375ZM45.5793 31.9375C62.5454 23.5211 21.1134 170.78 11.8984 185.198C1.67331 201.196 -2.70892 172.468 15.2373 157.674M210.069 48.2717C255.142 -88.3411 234.73 121.301 232.264 189.951M143.153 190C162.835 124.988 173.226 82.7708 177.387 56.765M177.387 56.765C187.184 -4.45497 162.459 24.1676 143.153 56.765M177.387 56.765C226.942 -81.7243 209.738 87.8845 194.941 190" stroke="white" stroke-width="5"/>
</svg>
