<svg width="126" height="112" viewBox="0 0 126 112" fill="none" xmlns="http://www.w3.org/2000/svg">
<path d="M63 67.3996C69.296 67.3996 74.4 62.2957 74.4 55.9996C74.4 49.7036 69.296 44.5996 63 44.5996C56.7039 44.5996 51.6 49.7036 51.6 55.9996C51.6 62.2957 56.7039 67.3996 63 67.3996Z" fill="#61DAFB"/>
<path d="M106.3 37.1996C104.1 36.3996 101.8 35.5996 99.4 34.8996C100 32.4996 100.5 30.0996 100.9 27.7996C103 14.5996 100.7 5.29961 94.3 1.69961C92.4 0.599609 90.3 0.0996094 87.9 0.0996094C80.9 0.0996094 72 5.29961 63 13.9996C54 5.29961 45.1 0.0996094 38.1 0.0996094C35.7 0.0996094 33.6 0.599609 31.7 1.69961C25.3 5.39961 23 14.6996 25.1 27.7996C25.5 30.0996 26 32.4996 26.6 34.8996C24.2 35.5996 21.9 36.2996 19.7 37.1996C7.20003 41.9996 0.400024 48.5996 0.400024 55.9996C0.400024 63.3996 7.30003 69.9996 19.7 74.7996C21.9 75.5996 24.2 76.3996 26.6 77.0996C26 79.4996 25.5 81.8996 25.1 84.1996C23 97.3996 25.3 106.7 31.7 110.3C33.6 111.4 35.7 111.9 38.1 111.9C45.2 111.9 54.1 106.7 63 97.9996C72 106.7 80.9 111.9 87.9 111.9C90.3 111.9 92.4 111.4 94.3 110.3C100.7 106.6 103 97.2996 100.9 84.1996C100.5 81.8996 100 79.4996 99.4 77.0996C101.8 76.3996 104.1 75.6996 106.3 74.7996C118.8 69.9996 125.6 63.3996 125.6 55.9996C125.6 48.5996 118.8 41.9996 106.3 37.1996V37.1996ZM91.5 6.69961C95.6 9.09961 97 16.4996 95.3 26.9996C95 29.0996 94.5 31.2996 93.9 33.5996C88.7 32.3996 83.2 31.5996 77.4 31.0996C74 26.2996 70.5 21.9996 67 18.0996C74.4 10.7996 81.9 5.79961 88 5.79961C89.3 5.79961 90.5 6.09961 91.5 6.69961V6.69961ZM80.3 65.9996C78.5 69.1996 76.4 72.3996 74.2 75.5996C70.5 75.8996 66.8 75.9996 63 75.9996C59.1 75.9996 55.4 75.8996 51.8 75.5996C49.6 72.3996 47.6 69.1996 45.8 65.9996C43.9 62.6996 42.1 59.2996 40.5 55.9996C42.1 52.6996 43.9 49.2996 45.8 45.9996C47.6 42.7996 49.7 39.5996 51.9 36.3996C55.6 36.0996 59.3 35.9996 63.1 35.9996C67 35.9996 70.7 36.0996 74.3 36.3996C76.5 39.5996 78.5 42.7996 80.3 45.9996C82.2 49.2996 84 52.6996 85.6 55.9996C83.9 59.2996 82.2 62.5996 80.3 65.9996ZM88.6 62.6996C90.1 66.1996 91.3 69.5996 92.4 72.9996C89 73.7996 85.4 74.3996 81.6 74.8996C82.8 72.9996 84.1 70.9996 85.2 68.8996C86.4 66.7996 87.5 64.6996 88.6 62.6996ZM63 89.7996C60.6 87.1996 58.3 84.3996 56.1 81.4996C58.4 81.5996 60.7 81.6996 63 81.6996C65.3 81.6996 67.6 81.5996 69.9 81.4996C67.7 84.3996 65.4 87.1996 63 89.7996ZM44.4 74.7996C40.6 74.2996 37 73.6996 33.6 72.8996C34.7 69.5996 35.9 66.0996 37.4 62.5996C38.5 64.5996 39.6 66.6996 40.8 68.6996C42 70.8996 43.2 72.7996 44.4 74.7996V74.7996ZM37.4 49.2996C35.9 45.7996 34.7 42.3996 33.6 38.9996C37 38.1996 40.6 37.5996 44.4 37.0996C43.2 38.9996 41.9 40.9996 40.8 43.0996C39.6 45.1996 38.5 47.2996 37.4 49.2996V49.2996ZM63 22.1996C65.4 24.7996 67.7 27.5996 69.9 30.4996C67.6 30.3996 65.3 30.2996 63 30.2996C60.7 30.2996 58.4 30.3996 56.1 30.4996C58.3 27.5996 60.6 24.7996 63 22.1996ZM85.2 43.1996L81.6 37.1996C85.4 37.6996 89 38.2996 92.4 39.0996C91.3 42.3996 90.1 45.8996 88.6 49.3996C87.5 47.2996 86.4 45.1996 85.2 43.1996ZM30.7 26.9996C29 16.4996 30.4 9.09961 34.5 6.69961C35.5 6.09961 36.7 5.79961 38 5.79961C44 5.79961 51.5 10.6996 59 18.0996C55.5 21.8996 52 26.2996 48.6 31.0996C42.8 31.5996 37.3 32.4996 32.1 33.5996C31.5 31.2996 31.1 29.0996 30.7 26.9996V26.9996ZM6.00002 55.9996C6.00002 51.2996 11.7 46.2996 21.7 42.5996C23.7 41.7996 25.9 41.0996 28.1 40.4996C29.7 45.4996 31.7 50.7996 34.1 56.0996C31.7 61.3996 29.6 66.5996 28.1 71.5996C14.3 67.5996 6.00002 61.5996 6.00002 55.9996ZM34.5 105.3C30.4 102.9 29 95.4996 30.7 84.9996C31 82.8996 31.5 80.6996 32.1 78.3996C37.3 79.5996 42.8 80.3996 48.6 80.8996C52 85.6996 55.5 89.9996 59 93.8996C51.6 101.2 44.1 106.2 38 106.2C36.7 106.2 35.5 105.9 34.5 105.3ZM95.3 84.9996C97 95.4996 95.6 102.9 91.5 105.3C90.5 105.9 89.3 106.2 88 106.2C82 106.2 74.5 101.3 67 93.8996C70.5 90.0996 74 85.6996 77.4 80.8996C83.2 80.3996 88.7 79.4996 93.9 78.3996C94.5 80.6996 94.9 82.8996 95.3 84.9996V84.9996ZM104.3 69.3996C102.3 70.1996 100.1 70.8996 97.9 71.4996C96.3 66.4996 94.3 61.1996 91.9 55.8996C94.3 50.5996 96.4 45.3996 97.9 40.3996C111.7 44.3996 120 50.3996 120 55.9996C120 60.6996 114.2 65.6996 104.3 69.3996Z" fill="#61DAFB"/>
</svg>
